<svg width="124" height="124" viewBox="0 0 124 124" fill="none" xmlns="http://www.w3.org/2000/svg">
<path d="M106.015 32.2607C106.015 31.6358 105.892 31.017 105.653 30.4397C105.413 29.8623 105.063 29.3378 104.621 28.8959C104.179 28.454 103.655 28.1035 103.077 27.8644C102.5 27.6252 101.881 27.5022 101.256 27.5022H22.7437C22.1188 27.5022 21.5 27.6252 20.9227 27.8644C20.3453 28.1035 19.8208 28.454 19.3789 28.8959C18.937 29.3378 18.5865 29.8623 18.3474 30.4397C18.1083 31.017 17.9852 31.6358 17.9852 32.2607V91.7393C17.9852 93.0014 18.4865 94.2117 19.3789 95.1041C20.2713 95.9965 21.4816 96.4978 22.7437 96.4978H101.256C102.518 96.4978 103.729 95.9965 104.621 95.1041C105.513 94.2117 106.015 93.0014 106.015 91.7393V32.2607Z" stroke="white" stroke-width="0.25" stroke-linecap="round" stroke-linejoin="round"/>
<path d="M98.3217 27.5022L96.8182 21.8808C96.4912 20.662 95.6936 19.623 94.6007 18.9922C93.5077 18.3614 92.209 18.1906 90.9902 18.5173L57.4585 27.5022M106.015 85.9217L108.846 85.1622C109.45 85.0006 110.016 84.7216 110.512 84.3413C111.008 83.9609 111.424 83.4866 111.736 82.9454C112.049 82.4042 112.252 81.8067 112.334 81.1871C112.415 80.5675 112.374 79.9379 112.212 79.3342L106.012 56.2056M25.6783 96.4978L27.1818 102.117C27.3434 102.72 27.6224 103.286 28.0027 103.782C28.3831 104.278 28.8574 104.694 29.3986 105.007C29.9398 105.319 30.5372 105.522 31.1569 105.604C31.7765 105.686 32.4061 105.644 33.0098 105.483L66.5415 96.4978M17.9852 38.0783L15.1538 38.8378C14.5501 38.9994 13.9841 39.2784 13.4882 39.6587C12.9923 40.0391 12.5762 40.5134 12.2636 41.0546C11.951 41.5958 11.7481 42.1932 11.6665 42.8129C11.5848 43.4325 11.626 44.0621 11.7877 44.6658L18.0239 67.9365M33.449 41.7777H90.5484M33.449 55.2601H90.5484M33.449 68.7399H90.5484M33.449 82.2223H62" stroke="white" stroke-width="0.25" stroke-linecap="round" stroke-linejoin="round"/>
</svg>
