<svg width="45" height="45" viewBox="0 0 45 45" fill="none" xmlns="http://www.w3.org/2000/svg">
<path d="M22.1398 25.4013V27.268C22.1398 27.5324 22.2238 27.7542 22.3918 27.9334C22.5598 28.1126 22.7675 28.2019 23.0148 28.2013C23.2627 28.2013 23.4707 28.1117 23.6387 27.9325C23.8067 27.7533 23.8904 27.5318 23.8898 27.268V25.4013H25.6398C25.8877 25.4013 26.0957 25.3117 26.2637 25.1325C26.4317 24.9533 26.5154 24.7318 26.5148 24.468C26.5148 24.2035 26.4308 23.9817 26.2628 23.8025C26.0948 23.6233 25.8872 23.534 25.6398 23.5346H23.8898V21.668C23.8898 21.4035 23.8058 21.1817 23.6378 21.0025C23.4698 20.8233 23.2622 20.734 23.0148 20.7346C22.7669 20.7346 22.559 20.8242 22.391 21.0034C22.223 21.1826 22.1392 21.4042 22.1398 21.668V23.5346H20.3898C20.1419 23.5346 19.934 23.6242 19.766 23.8034C19.598 23.9826 19.5142 24.2042 19.5148 24.468C19.5148 24.7324 19.5988 24.9542 19.7668 25.1334C19.9348 25.3126 20.1425 25.4019 20.3898 25.4013H22.1398ZM17.7648 31.9346C17.2836 31.9346 16.8715 31.7517 16.5285 31.3858C16.1855 31.02 16.0142 30.5807 16.0148 30.068V15.1346C16.0148 14.6213 16.1863 14.1817 16.5293 13.8159C16.8723 13.45 17.2842 13.2674 17.7648 13.268H24.043C24.2763 13.268 24.4988 13.3147 24.7106 13.408C24.9223 13.5013 25.1081 13.6335 25.268 13.8047L29.5117 18.3313C29.6721 18.5024 29.7961 18.7009 29.8836 18.9268C29.9711 19.1526 30.0148 19.3897 30.0148 19.638V30.068C30.0148 30.5813 29.8433 31.0209 29.5003 31.3868C29.1573 31.7526 28.7455 31.9353 28.2648 31.9346H17.7648ZM23.8898 18.868V15.1346H17.7648V30.068H28.2648V19.8013H24.7648C24.5169 19.8013 24.309 19.7117 24.141 19.5325C23.973 19.3533 23.8892 19.1318 23.8898 18.868Z" fill="white"/>
</svg>
