<svg width="12" height="12" viewBox="0 0 12 12" fill="none" xmlns="http://www.w3.org/2000/svg">
<path fill-rule="evenodd" clip-rule="evenodd" d="M4.5 1.07692C4.23478 1.07692 3.98043 1.17417 3.79289 1.34728C3.60536 1.52039 3.5 1.75518 3.5 2V2.92307H4.5V2H10V7.07692H9V8H10C10.2652 8 10.5196 7.90274 10.7071 7.72963C10.8946 7.55652 11 7.32173 11 7.07692V2C11 1.75518 10.8946 1.52039 10.7071 1.34728C10.5196 1.17417 10.2652 1.07692 10 1.07692H4.5ZM2 3.38461C1.73478 3.38461 1.48043 3.48186 1.29289 3.65497C1.10536 3.82809 1 4.06287 1 4.30769V9.38461C1 9.62943 1.10536 9.86422 1.29289 10.0373C1.48043 10.2104 1.73478 10.3077 2 10.3077H7.5C7.76522 10.3077 8.01957 10.2104 8.20711 10.0373C8.39464 9.86422 8.5 9.62943 8.5 9.38461V4.30769C8.5 4.06287 8.39464 3.82809 8.20711 3.65497C8.01957 3.48186 7.76522 3.38461 7.5 3.38461H2ZM2 4.30769H7.5V9.38461H2V4.30769Z" fill="white"/>
</svg>
