<svg width="12" height="12" viewBox="0 0 12 12" fill="none" xmlns="http://www.w3.org/2000/svg">
<path fill-rule="evenodd" clip-rule="evenodd" d="M4.5 1C4.23478 1 3.98043 1.09725 3.79289 1.27036C3.60536 1.44347 3.5 1.67826 3.5 1.92308V2.84615H4.5V1.92308H10V7H9V7.92308H10C10.2652 7.92308 10.5196 7.82582 10.7071 7.65271C10.8946 7.4796 11 7.24482 11 7V1.92308C11 1.67826 10.8946 1.44347 10.7071 1.27036C10.5196 1.09725 10.2652 1 10 1H4.5ZM2 3.30769C1.73478 3.30769 1.48043 3.40494 1.29289 3.57806C1.10536 3.75117 1 3.98595 1 4.23077V9.30769C1 9.55251 1.10536 9.7873 1.29289 9.96041C1.48043 10.1335 1.73478 10.2308 2 10.2308H7.5C7.76522 10.2308 8.01957 10.1335 8.20711 9.96041C8.39464 9.7873 8.5 9.55251 8.5 9.30769V4.23077C8.5 3.98595 8.39464 3.75117 8.20711 3.57806C8.01957 3.40494 7.76522 3.30769 7.5 3.30769H2ZM2 4.23077H7.5V9.30769H2V4.23077Z" fill="white"/>
</svg>
