<svg width="12" height="12" viewBox="0 0 12 12" fill="none" xmlns="http://www.w3.org/2000/svg">
<g clip-path="url(#clip0_156_119)">
<path opacity="0.1" fill-rule="evenodd" clip-rule="evenodd" d="M6 2C4.93913 2 3.92172 2.42143 3.17157 3.17157C2.42143 3.92172 2 4.93913 2 6C2 7.06087 2.42143 8.07828 3.17157 8.82843C3.92172 9.57857 4.93913 10 6 10C7.06087 10 8.07828 9.57857 8.82843 8.82843C9.57857 8.07828 10 7.06087 10 6C10 4.93913 9.57857 3.92172 8.82843 3.17157C8.07828 2.42143 7.06087 2 6 2ZM1 6C1 3.2385 3.2385 1 6 1C8.7615 1 11 3.2385 11 6C11 8.7615 8.7615 11 6 11C3.2385 11 1 8.7615 1 6Z" fill="white"/>
<path fill-rule="evenodd" clip-rule="evenodd" d="M6 2C4.96871 1.99782 3.97685 2.39614 3.2335 3.111C3.1861 3.15644 3.1302 3.19209 3.06902 3.21593C3.00783 3.23977 2.94255 3.25132 2.8769 3.24992C2.81125 3.24853 2.74651 3.23422 2.68639 3.20781C2.62627 3.1814 2.57194 3.14341 2.5265 3.096C2.48107 3.04859 2.44541 2.9927 2.42157 2.93151C2.39774 2.87033 2.38619 2.80504 2.38758 2.73939C2.38897 2.67374 2.40328 2.60901 2.42969 2.54889C2.4561 2.48877 2.4941 2.43444 2.5415 2.389C3.47104 1.49572 4.71082 0.997795 6 1C6.13261 1 6.25979 1.05268 6.35356 1.14645C6.44733 1.24021 6.5 1.36739 6.5 1.5C6.5 1.63261 6.44733 1.75978 6.35356 1.85355C6.25979 1.94732 6.13261 2 6 2Z" fill="white"/>
</g>
<defs>
<clipPath id="clip0_156_119">
<rect width="12" height="12" fill="white"/>
</clipPath>
</defs>
</svg>
