<svg width="12" height="12" viewBox="0 0 12 12" fill="none" xmlns="http://www.w3.org/2000/svg">
<path d="M11 6L8.58333 9.51429C8.48148 9.66667 8.34963 9.78571 8.18778 9.87143C8.02593 9.95714 7.85222 10 7.66667 10H2.11111C1.80556 10 1.54389 9.888 1.32611 9.664C1.10833 9.44 0.999631 9.17105 1 8.85714V3.14286C1 2.82857 1.10889 2.55943 1.32667 2.33543C1.54445 2.11143 1.80593 1.99962 2.11111 2H7.66667C7.85185 2 8.02556 2.04286 8.18778 2.12857C8.35 2.21429 8.48185 2.33333 8.58333 2.48572L11 6ZM9.63889 6L7.66667 3.14286H2.11111V8.85714H7.66667L9.63889 6ZM2.11111 6V8.85714V3.14286V6Z" fill="white"/>
</svg>
