<svg width="10" height="8" viewBox="0 0 10 8" fill="none" xmlns="http://www.w3.org/2000/svg">
<path d="M10 4L7.58333 7.51429C7.48148 7.66667 7.34963 7.78571 7.18778 7.87143C7.02593 7.95714 6.85222 8 6.66667 8H1.11111C0.805556 8 0.54389 7.888 0.326112 7.664C0.108334 7.44 -0.000369427 7.17105 9.43219e-07 6.85714V1.14286C9.43219e-07 0.828572 0.10889 0.559429 0.326668 0.335429C0.544445 0.111429 0.805927 -0.000379982 1.11111 9.70168e-07H6.66667C6.85185 9.70168e-07 7.02556 0.042858 7.18778 0.128572C7.35 0.214287 7.48185 0.333334 7.58333 0.485715L10 4ZM8.63889 4L6.66667 1.14286H1.11111V6.85714H6.66667L8.63889 4ZM1.11111 4V6.85714V1.14286V4Z" fill="white"/>
</svg>
