<svg width="18" height="18" viewBox="0 0 18 18" fill="none" xmlns="http://www.w3.org/2000/svg">
<g clip-path="url(#clip0_95_74)">
<path d="M4.66425 0.164251C4.71658 0.112049 4.77869 0.0706735 4.84703 0.0424903C4.91536 0.0143072 4.98858 -0.000131118 5.0625 8.9718e-07H12.9375C13.0867 8.9718e-07 13.2298 0.0592641 13.3352 0.164753C13.4407 0.270243 13.5 0.413317 13.5 0.562501C13.5 1.3275 13.1153 1.88325 12.7733 2.22638C12.6315 2.367 12.492 2.47838 12.375 2.56163V7.5465L12.4628 7.6005C12.6911 7.74338 12.9983 7.95375 13.3076 8.22488C13.905 8.74688 14.625 9.59288 14.625 10.6875C14.625 10.8367 14.5657 10.9798 14.4602 11.0852C14.3548 11.1907 14.2117 11.25 14.0625 11.25H9.5625V16.3125C9.5625 16.623 9.3105 18 9 18C8.6895 18 8.4375 16.623 8.4375 16.3125V11.25H3.9375C3.78832 11.25 3.64524 11.1907 3.53975 11.0852C3.43426 10.9798 3.375 10.8367 3.375 10.6875C3.375 9.59288 4.095 8.74688 4.69125 8.22488C4.98229 7.97216 5.29471 7.74518 5.625 7.5465V2.56163C5.48313 2.46118 5.34992 2.34904 5.22675 2.22638C4.88475 1.88325 4.5 1.32638 4.5 0.562501C4.49987 0.488583 4.51431 0.415364 4.54249 0.347029C4.57067 0.278695 4.61205 0.216585 4.66425 0.164251Z" fill="white"/>
</g>
<defs>
<clipPath id="clip0_95_74">
<rect width="18" height="18" fill="white"/>
</clipPath>
</defs>
</svg>
