<svg width="19" height="19" viewBox="0 0 19 19" fill="none" xmlns="http://www.w3.org/2000/svg">
<path fill-rule="evenodd" clip-rule="evenodd" d="M16.7917 16.7917C17.0572 16.792 17.3125 16.8936 17.5056 17.0759C17.6986 17.2581 17.8148 17.5072 17.8304 17.7723C17.8459 18.0373 17.7597 18.2983 17.5893 18.5019C17.4189 18.7055 17.1772 18.8364 16.9135 18.8677L16.7917 18.875H9.49999C9.23449 18.8747 8.97912 18.773 8.78606 18.5908C8.59301 18.4085 8.47683 18.1594 8.46127 17.8944C8.44571 17.6293 8.53194 17.3684 8.70235 17.1648C8.87275 16.9612 9.11447 16.8303 9.37811 16.799L9.49999 16.7917H16.7917ZM13.7667 1.55001C14.2437 1.07324 14.8871 0.800146 15.5615 0.788219C16.2358 0.776292 16.8885 1.02646 17.3821 1.48606C17.8757 1.94566 18.1718 2.57884 18.208 3.25233C18.2441 3.92581 18.0176 4.58706 17.576 5.09688L17.4489 5.2323L6.09895 16.5833C5.99976 16.6826 5.88764 16.7681 5.76561 16.8375L5.64061 16.9L1.67811 18.7021C0.836448 19.0844 -0.0281352 18.2677 0.25624 17.426L0.297906 17.3219L2.09999 13.3583C2.15775 13.2309 2.23238 13.1118 2.32187 13.0042L2.41561 12.9L13.7667 1.55001ZM15.976 3.02292C15.8897 2.9368 15.7759 2.88369 15.6545 2.87284C15.5331 2.86199 15.4117 2.89409 15.3114 2.96355L15.2396 3.02292L3.95624 14.3063L3.3427 15.6573L4.6927 15.0427L15.976 3.76042C16.0245 3.71204 16.063 3.65457 16.0893 3.59129C16.1155 3.52802 16.129 3.46018 16.129 3.39167C16.129 3.32317 16.1155 3.25533 16.0893 3.19205C16.063 3.12878 16.0245 3.0713 15.976 3.02292Z" fill="white"/>
</svg>
