<svg width="13" height="14" viewBox="0 0 13 14" fill="none" xmlns="http://www.w3.org/2000/svg">
<g clip-path="url(#clip0_141_137)">
<path d="M3.96875 3.28123H2.1875C1.87256 3.28123 1.57051 3.40635 1.34781 3.62905C1.12511 3.85174 1 4.15379 1 4.46873V9.81248C1 10.1274 1.12511 10.4295 1.34781 10.6522C1.57051 10.8749 1.87256 11 2.1875 11H10.5C10.8149 11 11.117 10.8749 11.3397 10.6522C11.5624 10.4295 11.6875 10.1274 11.6875 9.81248V4.46873C11.6875 4.15379 11.5624 3.85174 11.3397 3.62905C11.117 3.40635 10.8149 3.28123 10.5 3.28123H8.71875M8.125 5.65623L6.34375 7.43748M6.34375 7.43748L4.5625 5.65623M6.34375 7.43748V1.49998" stroke="white" stroke-linecap="round" stroke-linejoin="round"/>
</g>
<defs>
<clipPath id="clip0_141_137">
<rect width="13" height="13" fill="white" transform="translate(0 0.5)"/>
</clipPath>
</defs>
</svg>
