<svg width="12" height="12" viewBox="0 0 12 12" fill="none" xmlns="http://www.w3.org/2000/svg">
<path d="M7.14 1C7.34988 1.00005 7.55442 1.06614 7.72465 1.1889C7.89489 1.31166 8.02218 1.48488 8.0885 1.684L8.36 2.5H10C10.1326 2.5 10.2598 2.55268 10.3536 2.64645C10.4473 2.74021 10.5 2.86739 10.5 3C10.5 3.13261 10.4473 3.25979 10.3536 3.35355C10.2598 3.44732 10.1326 3.5 10 3.5L9.9985 3.5355L9.565 9.607C9.53794 9.98531 9.36859 10.3393 9.09102 10.5978C8.81345 10.8562 8.44827 11 8.069 11H3.931C3.55173 11 3.18655 10.8562 2.90898 10.5978C2.63141 10.3393 2.46205 9.98531 2.435 9.607L2.0015 3.535C2.0006 3.52335 2.0001 3.51168 2 3.5C1.86739 3.5 1.74021 3.44732 1.64645 3.35355C1.55268 3.25979 1.5 3.13261 1.5 3C1.5 2.86739 1.55268 2.74021 1.64645 2.64645C1.74021 2.55268 1.86739 2.5 2 2.5H3.64L3.9115 1.684C3.97785 1.48479 4.10522 1.31153 4.27555 1.18876C4.44588 1.06599 4.65054 0.999949 4.8605 1H7.14ZM8.9985 3.5H3.0015L3.4325 9.5355C3.44148 9.6616 3.49789 9.77962 3.59038 9.86581C3.68287 9.95199 3.80458 9.99994 3.931 10H8.069C8.19542 9.99994 8.31713 9.95199 8.40962 9.86581C8.50211 9.77962 8.55852 9.6616 8.5675 9.5355L8.9985 3.5ZM5 5C5.12247 5.00002 5.24067 5.04498 5.33219 5.12636C5.4237 5.20774 5.48217 5.31987 5.4965 5.4415L5.5 5.5V8C5.49986 8.12744 5.45106 8.25002 5.36358 8.34268C5.27609 8.43535 5.15652 8.49112 5.0293 8.49859C4.90208 8.50605 4.77681 8.46466 4.67908 8.38287C4.58136 8.30107 4.51855 8.18505 4.5035 8.0585L4.5 8V5.5C4.5 5.36739 4.55268 5.24021 4.64645 5.14645C4.74021 5.05268 4.86739 5 5 5ZM7 5C7.13261 5 7.25979 5.05268 7.35355 5.14645C7.44732 5.24021 7.5 5.36739 7.5 5.5V8C7.5 8.13261 7.44732 8.25979 7.35355 8.35355C7.25979 8.44732 7.13261 8.5 7 8.5C6.86739 8.5 6.74021 8.44732 6.64645 8.35355C6.55268 8.25979 6.5 8.13261 6.5 8V5.5C6.5 5.36739 6.55268 5.24021 6.64645 5.14645C6.74021 5.05268 6.86739 5 7 5ZM7.14 2H4.86L4.6935 2.5H7.3065L7.14 2Z" fill="white"/>
</svg>
