<svg width="25" height="24" viewBox="0 0 25 24" fill="none" xmlns="http://www.w3.org/2000/svg">
<path d="M12.9 19.2C10.4 19.2 8.19002 17.92 6.90002 16C6.93002 14 10.9 12.9 12.9 12.9C14.9 12.9 18.87 14 18.9 16C18.2389 16.9844 17.3459 17.7912 16.2996 18.3492C15.2533 18.9072 14.0858 19.1994 12.9 19.2ZM12.9 5C13.6957 5 14.4587 5.31607 15.0213 5.87868C15.584 6.44129 15.9 7.20435 15.9 8C15.9 8.79565 15.584 9.55871 15.0213 10.1213C14.4587 10.6839 13.6957 11 12.9 11C12.1044 11 11.3413 10.6839 10.7787 10.1213C10.2161 9.55871 9.90002 8.79565 9.90002 8C9.90002 7.20435 10.2161 6.44129 10.7787 5.87868C11.3413 5.31607 12.1044 5 12.9 5ZM12.9 2C11.5868 2 10.2864 2.25866 9.07319 2.7612C7.85993 3.26375 6.75754 4.00035 5.82896 4.92893C3.95359 6.8043 2.90002 9.34784 2.90002 12C2.90002 14.6522 3.95359 17.1957 5.82896 19.0711C6.75754 19.9997 7.85993 20.7362 9.07319 21.2388C10.2864 21.7413 11.5868 22 12.9 22C15.5522 22 18.0957 20.9464 19.9711 19.0711C21.8465 17.1957 22.9 14.6522 22.9 12C22.9 6.47 18.4 2 12.9 2Z" fill="white"/>
</svg>
