<svg width="53" height="53" viewBox="0 0 53 53" fill="none" xmlns="http://www.w3.org/2000/svg">
<g filter="url(#filter0_d_53_40)">
<rect x="4" width="45" height="45" rx="22.5" fill="url(#paint0_linear_53_40)"/>
<path d="M25.9211 24.968V26.768C25.9211 27.023 26.0021 27.2369 26.1641 27.4097C26.3261 27.5825 26.5263 27.6686 26.7648 27.668C27.0039 27.668 27.2044 27.5816 27.3664 27.4088C27.5284 27.236 27.6091 27.0224 27.6086 26.768V24.968H29.2961C29.5351 24.968 29.7357 24.8816 29.8977 24.7088C30.0597 24.536 30.1404 24.3224 30.1398 24.068C30.1398 23.813 30.0588 23.5991 29.8968 23.4263C29.7348 23.2535 29.5346 23.1674 29.2961 23.168H27.6086V21.368C27.6086 21.113 27.5276 20.8991 27.3656 20.7263C27.2036 20.5535 27.0033 20.4674 26.7648 20.468C26.5258 20.468 26.3252 20.5544 26.1632 20.7272C26.0012 20.9 25.9205 21.1136 25.9211 21.368V23.168H24.2336C23.9945 23.168 23.794 23.2544 23.632 23.4272C23.47 23.6 23.3893 23.8136 23.3898 24.068C23.3898 24.323 23.4708 24.5369 23.6328 24.7097C23.7948 24.8825 23.9951 24.9686 24.2336 24.968H25.9211ZM21.7023 31.268C21.2383 31.268 20.8409 31.0916 20.5101 30.7388C20.1794 30.386 20.0143 29.9624 20.0148 29.468V15.068C20.0148 14.573 20.1802 14.1491 20.511 13.7963C20.8417 13.4435 21.2388 13.2674 21.7023 13.268H27.7562C27.9812 13.268 28.1958 13.313 28.4 13.403C28.6042 13.493 28.7834 13.6205 28.9375 13.7855L33.0297 18.1505C33.1844 18.3155 33.3039 18.5069 33.3883 18.7247C33.4726 18.9425 33.5148 19.1711 33.5148 19.4105V29.468C33.5148 29.963 33.3495 30.3869 33.0187 30.7397C32.688 31.0925 32.2908 31.2686 31.8273 31.268H21.7023ZM27.6086 18.668V15.068H21.7023V29.468H31.8273V19.568H28.4523C28.2133 19.568 28.0127 19.4816 27.8507 19.3088C27.6887 19.136 27.608 18.9224 27.6086 18.668Z" fill="white"/>
</g>
<defs>
<filter id="filter0_d_53_40" x="0" y="0" width="53" height="53" filterUnits="userSpaceOnUse" color-interpolation-filters="sRGB">
<feFlood flood-opacity="0" result="BackgroundImageFix"/>
<feColorMatrix in="SourceAlpha" type="matrix" values="0 0 0 0 0 0 0 0 0 0 0 0 0 0 0 0 0 0 127 0" result="hardAlpha"/>
<feOffset dy="4"/>
<feGaussianBlur stdDeviation="2"/>
<feComposite in2="hardAlpha" operator="out"/>
<feColorMatrix type="matrix" values="0 0 0 0 0 0 0 0 0 0 0 0 0 0 0 0 0 0 0.25 0"/>
<feBlend mode="normal" in2="BackgroundImageFix" result="effect1_dropShadow_53_40"/>
<feBlend mode="normal" in="SourceGraphic" in2="effect1_dropShadow_53_40" result="shape"/>
</filter>
<linearGradient id="paint0_linear_53_40" x1="4" y1="0" x2="49" y2="45" gradientUnits="userSpaceOnUse">
<stop stop-color="#43CBFF"/>
<stop offset="1" stop-color="#9708CC"/>
</linearGradient>
</defs>
</svg>
