<svg width="12" height="12" viewBox="0 0 12 12" fill="none" xmlns="http://www.w3.org/2000/svg">
<path d="M6.5 7H4.5C4.36739 7 4.24021 7.05268 4.14645 7.14645C4.05268 7.24021 4 7.36739 4 7.5C4 7.63261 4.05268 7.75979 4.14645 7.85355C4.24021 7.94732 4.36739 8 4.5 8H6.5C6.63261 8 6.75979 7.94732 6.85355 7.85355C6.94732 7.75979 7 7.63261 7 7.5C7 7.36739 6.94732 7.24021 6.85355 7.14645C6.75979 7.05268 6.63261 7 6.5 7ZM8.5 2H7.91C7.80684 1.70823 7.61596 1.4555 7.36353 1.27647C7.1111 1.09744 6.80947 1.00087 6.5 1H5.5C5.19053 1.00087 4.8889 1.09744 4.63647 1.27647C4.38404 1.4555 4.19316 1.70823 4.09 2H3.5C3.10218 2 2.72064 2.15804 2.43934 2.43934C2.15804 2.72064 2 3.10218 2 3.5V9.5C2 9.89782 2.15804 10.2794 2.43934 10.5607C2.72064 10.842 3.10218 11 3.5 11H8.5C8.89782 11 9.27936 10.842 9.56066 10.5607C9.84196 10.2794 10 9.89782 10 9.5V3.5C10 3.10218 9.84196 2.72064 9.56066 2.43934C9.27936 2.15804 8.89782 2 8.5 2ZM5 2.5C5 2.36739 5.05268 2.24021 5.14645 2.14645C5.24021 2.05268 5.36739 2 5.5 2H6.5C6.63261 2 6.75979 2.05268 6.85355 2.14645C6.94732 2.24021 7 2.36739 7 2.5V3H5V2.5ZM9 9.5C9 9.63261 8.94732 9.75979 8.85355 9.85355C8.75979 9.94732 8.63261 10 8.5 10H3.5C3.36739 10 3.24021 9.94732 3.14645 9.85355C3.05268 9.75979 3 9.63261 3 9.5V3.5C3 3.36739 3.05268 3.24021 3.14645 3.14645C3.24021 3.05268 3.36739 3 3.5 3H4V3.5C4 3.63261 4.05268 3.75979 4.14645 3.85355C4.24021 3.94732 4.36739 4 4.5 4H7.5C7.63261 4 7.75979 3.94732 7.85355 3.85355C7.94732 3.75979 8 3.63261 8 3.5V3H8.5C8.63261 3 8.75979 3.05268 8.85355 3.14645C8.94732 3.24021 9 3.36739 9 3.5V9.5ZM7.5 5H4.5C4.36739 5 4.24021 5.05268 4.14645 5.14645C4.05268 5.24021 4 5.36739 4 5.5C4 5.63261 4.05268 5.75979 4.14645 5.85355C4.24021 5.94732 4.36739 6 4.5 6H7.5C7.63261 6 7.75979 5.94732 7.85355 5.85355C7.94732 5.75979 8 5.63261 8 5.5C8 5.36739 7.94732 5.24021 7.85355 5.14645C7.75979 5.05268 7.63261 5 7.5 5Z" fill="white"/>
</svg>
