<svg width="22" height="21" viewBox="0 0 22 21" fill="none" xmlns="http://www.w3.org/2000/svg">
<path d="M11 16.6844C12.375 16.6844 13.5439 16.1923 14.5068 15.2081C15.4697 14.2238 15.9507 13.0293 15.95 11.6244C15.95 10.2189 15.4686 9.02398 14.5057 8.03972C13.5428 7.05546 12.3743 6.5637 11 6.56445C9.625 6.56445 8.45607 7.05658 7.4932 8.04084C6.53033 9.02511 6.04927 10.2196 6.05 11.6244C6.05 13.03 6.53143 14.2249 7.4943 15.2092C8.45717 16.1934 9.62573 16.6852 11 16.6844ZM11 14.4356C10.23 14.4356 9.57917 14.1638 9.0475 13.6203C8.51583 13.0769 8.25 12.4116 8.25 11.6244C8.25 10.8373 8.51583 10.172 9.0475 9.62856C9.57917 9.08508 10.23 8.81334 11 8.81334C11.77 8.81334 12.4208 9.08508 12.9525 9.62856C13.4842 10.172 13.75 10.8373 13.75 11.6244C13.75 12.4116 13.4842 13.0769 12.9525 13.6203C12.4208 14.1638 11.77 14.4356 11 14.4356ZM2.2 20.62C1.595 20.62 1.0769 20.3996 0.645702 19.9588C0.214502 19.518 -0.000731466 18.9888 1.86757e-06 18.3711V4.87778C1.86757e-06 4.25934 0.215602 3.72972 0.646802 3.28894C1.078 2.84816 1.59573 2.62814 2.2 2.62889H5.665L7.7 0.380005H14.3L16.335 2.62889H19.8C20.405 2.62889 20.9231 2.84928 21.3543 3.29007C21.7855 3.73085 22.0007 4.26009 22 4.87778V18.3711C22 18.9896 21.7844 19.5192 21.3532 19.96C20.922 20.4007 20.4043 20.6208 19.8 20.62H2.2ZM19.8 18.3711V4.87778H15.345L13.3375 2.62889H8.6625L6.655 4.87778H2.2V18.3711H19.8Z" fill="#F8F8F8" fill-opacity="0.95"/>
</svg>
