<svg width="19" height="19" viewBox="0 0 19 19" fill="none" xmlns="http://www.w3.org/2000/svg">
<path d="M2.20833 18.875C1.63542 18.875 1.14479 18.6708 0.73646 18.2625C0.328127 17.8542 0.124307 17.3639 0.125002 16.7917V2.20833C0.125002 1.63542 0.329168 1.14479 0.737502 0.73646C1.14584 0.328127 1.63611 0.124307 2.20833 0.125002H16.7917C17.3646 0.125002 17.8552 0.329168 18.2635 0.737502C18.6719 1.14584 18.8757 1.63611 18.875 2.20833V16.7917C18.875 17.3646 18.6708 17.8552 18.2625 18.2635C17.8542 18.6719 17.3639 18.8757 16.7917 18.875H2.20833ZM2.20833 16.7917H16.7917V2.20833H2.20833V16.7917ZM3.25 14.7083H15.75L11.8438 9.5L8.71875 13.6667L6.375 10.5417L3.25 14.7083Z" fill="#F8F8F8" fill-opacity="0.95"/>
</svg>
