<svg width="11" height="11" viewBox="0 0 11 11" fill="none" xmlns="http://www.w3.org/2000/svg">
<g clip-path="url(#clip0_17_105)">
<path d="M9.91369 5.48797L6.16369 1.73797C6.00745 1.58301 5.79626 1.49613 5.5762 1.49631H2.65953C2.43851 1.49631 2.22655 1.5841 2.07027 1.74039C1.91399 1.89667 1.8262 2.10863 1.8262 2.32964V5.24631C1.82611 5.35627 1.84779 5.46516 1.88998 5.56671C1.93217 5.66826 1.99404 5.76045 2.07203 5.83797L5.82203 9.58797C5.97827 9.74294 6.18947 9.82982 6.40953 9.82964C6.63019 9.82871 6.84147 9.7403 6.99703 9.58381L9.91369 6.66714C10.0702 6.51158 10.1586 6.3003 10.1595 6.07964C10.1596 5.96968 10.1379 5.86078 10.0957 5.75924C10.0536 5.65769 9.99168 5.5655 9.91369 5.48797ZM6.40953 8.99631L2.65953 5.24631V2.32964H5.5762L9.32619 6.07964M3.70119 2.74631C3.82481 2.74631 3.94565 2.78296 4.04843 2.85164C4.15121 2.92032 4.23131 3.01793 4.27862 3.13213C4.32592 3.24633 4.3383 3.372 4.31419 3.49324C4.29007 3.61448 4.23054 3.72584 4.14314 3.81325C4.05573 3.90066 3.94436 3.96018 3.82313 3.9843C3.70189 4.00841 3.57622 3.99604 3.46202 3.94873C3.34781 3.90143 3.2502 3.82132 3.18153 3.71854C3.11285 3.61576 3.0762 3.49492 3.0762 3.37131C3.0762 3.20555 3.14204 3.04658 3.25925 2.92937C3.37646 2.81216 3.53543 2.74631 3.70119 2.74631Z" fill="white"/>
</g>
<defs>
<clipPath id="clip0_17_105">
<rect width="10" height="10" fill="white" transform="translate(0.992859 0.662964)"/>
</clipPath>
</defs>
</svg>
