<svg width="25" height="25" viewBox="0 0 25 25" fill="none" xmlns="http://www.w3.org/2000/svg">
<g clip-path="url(#clip0_17_113)">
<path d="M8.75 25H16.25M20 11V12.8667C20 16.9733 16.625 20.3333 12.5 20.3333M12.5 20.3333C8.375 20.3333 5 16.9733 5 12.8667V11M12.5 20.3333V25" stroke="white" stroke-width="0.75" stroke-linecap="round" stroke-linejoin="round"/>
<path d="M12.5 18C11.774 17.9985 11.0558 17.8643 10.388 17.6056C9.72011 17.3468 9.11625 16.9687 8.61222 16.4938C7.58041 15.5477 7.00103 14.2697 7.00004 12.9375V6.00003C6.99722 5.3427 7.13756 4.69137 7.41296 4.08359C7.68836 3.4758 8.09338 2.92359 8.60466 2.45879C9.11595 1.99399 9.72338 1.62579 10.3919 1.37542C11.0605 1.12506 11.777 0.997476 12.5 1.00004C15.5841 1.00004 18 3.19628 18 6.00003V12.9375C18 15.7288 15.5326 18 12.5 18Z" fill="white"/>
</g>
<defs>
<clipPath id="clip0_17_113">
<rect width="25" height="25" fill="white"/>
</clipPath>
</defs>
</svg>
