<svg width="29" height="30" viewBox="0 0 29 30" fill="none" xmlns="http://www.w3.org/2000/svg">
<path d="M14.5 20C15.1409 20 15.7556 20.2634 16.2088 20.7322C16.662 21.2011 16.9166 21.837 16.9166 22.5C16.9166 23.163 16.662 23.7989 16.2088 24.2678C15.7556 24.7366 15.1409 25 14.5 25C13.859 25 13.2444 24.7366 12.7911 24.2678C12.3379 23.7989 12.0833 23.163 12.0833 22.5C12.0833 21.837 12.3379 21.2011 12.7911 20.7322C13.2444 20.2634 13.859 20 14.5 20ZM14.5 12.5C15.1409 12.5 15.7556 12.7634 16.2088 13.2322C16.662 13.7011 16.9166 14.337 16.9166 15C16.9166 15.663 16.662 16.2989 16.2088 16.7678C15.7556 17.2366 15.1409 17.5 14.5 17.5C13.859 17.5 13.2444 17.2366 12.7911 16.7678C12.3379 16.2989 12.0833 15.663 12.0833 15C12.0833 14.337 12.3379 13.7011 12.7911 13.2322C13.2444 12.7634 13.859 12.5 14.5 12.5ZM14.5 5C15.1409 5 15.7556 5.26339 16.2088 5.73223C16.662 6.20107 16.9166 6.83696 16.9166 7.5C16.9166 8.16304 16.662 8.79893 16.2088 9.26777C15.7556 9.73661 15.1409 10 14.5 10C13.859 10 13.2444 9.73661 12.7911 9.26777C12.3379 8.79893 12.0833 8.16304 12.0833 7.5C12.0833 6.83696 12.3379 6.20107 12.7911 5.73223C13.2444 5.26339 13.859 5 14.5 5Z" fill="#F8F8F8"/>
</svg>
