<svg width="11" height="11" viewBox="0 0 11 11" fill="none" xmlns="http://www.w3.org/2000/svg">
<path d="M6.48857 1C6.53091 0.999925 6.57284 1.00819 6.61198 1.02433C6.65111 1.04048 6.68668 1.06417 6.71665 1.09407L9.90593 4.28335C9.96633 4.34376 10.0003 4.42568 10.0003 4.51111C10.0003 4.59653 9.96633 4.67845 9.90593 4.73887C9.59667 5.04813 9.21524 5.11771 8.93755 5.11771C8.82351 5.11771 8.72171 5.10612 8.64117 5.09259L6.62194 7.11182C6.6751 7.32599 6.70959 7.54436 6.72503 7.76449C6.75467 8.21679 6.70441 8.85142 6.26114 9.2947C6.20072 9.35509 6.1188 9.38902 6.03338 9.38902C5.94795 9.38902 5.86603 9.35509 5.80562 9.2947L3.9829 7.47262L1.93274 9.52278C1.8071 9.64842 1.14734 10.1039 1.0217 9.9783C0.896061 9.85266 1.35158 9.19226 1.47722 9.06726L3.52738 7.0171L1.7053 5.19438C1.64491 5.13397 1.61098 5.05205 1.61098 4.96662C1.61098 4.8812 1.64491 4.79928 1.7053 4.73887C2.14858 4.29559 2.78321 4.24469 3.23551 4.27497C3.45564 4.29039 3.67402 4.32489 3.88818 4.37806L5.90741 2.35947C5.89056 2.26135 5.88194 2.162 5.88164 2.06245C5.88164 1.7854 5.95123 1.40398 6.26114 1.09407C6.32151 1.03385 6.4033 1.00002 6.48857 1Z" fill="white"/>
</svg>
