<svg width="12" height="12" viewBox="0 0 12 12" fill="none" xmlns="http://www.w3.org/2000/svg">
<path d="M5.07295 1.62399C5.14766 1.43935 5.2758 1.28122 5.44096 1.16988C5.60612 1.05854 5.80077 0.999054 5.99995 0.999054C6.19914 0.999054 6.39378 1.05854 6.55894 1.16988C6.7241 1.28122 6.85225 1.43935 6.92695 1.62399C7.66633 1.82733 8.31851 2.26777 8.78334 2.87766C9.24816 3.48755 9.49992 4.23316 9.49995 4.99999V7.34849L10.416 8.72249C10.4662 8.79779 10.495 8.88532 10.4994 8.97573C10.5038 9.06615 10.4836 9.15606 10.4409 9.23588C10.3982 9.31569 10.3346 9.38241 10.257 9.42893C10.1793 9.47544 10.0905 9.50001 9.99995 9.49999H7.73245C7.67225 9.91654 7.46398 10.2975 7.1458 10.573C6.82762 10.8485 6.42083 11.0001 5.99995 11.0001C5.57907 11.0001 5.17228 10.8485 4.8541 10.573C4.53592 10.2975 4.32765 9.91654 4.26745 9.49999H1.99995C1.90943 9.50001 1.8206 9.47544 1.74295 9.42893C1.66529 9.38241 1.60172 9.31569 1.55902 9.23588C1.51631 9.15606 1.49608 9.06615 1.50047 8.97573C1.50486 8.88532 1.53371 8.79779 1.58395 8.72249L2.49995 7.34849V4.99999C2.49995 3.38799 3.58995 2.02999 5.07295 1.62399ZM5.29295 9.49999C5.34459 9.64632 5.44035 9.77302 5.56701 9.86265C5.69368 9.95227 5.84503 10.0004 6.0002 10.0004C6.15537 10.0004 6.30672 9.95227 6.43339 9.86265C6.56006 9.77302 6.65581 9.64632 6.70745 9.49999H5.29245H5.29295ZM5.99995 2.49999C5.33691 2.49999 4.70103 2.76338 4.23219 3.23223C3.76334 3.70107 3.49995 4.33695 3.49995 4.99999V7.49999C3.49997 7.59876 3.47075 7.69532 3.41595 7.77749L2.93445 8.49999H9.06495L8.58345 7.77749C8.52884 7.69526 8.49978 7.59871 8.49995 7.49999V4.99999C8.49995 4.33695 8.23656 3.70107 7.76772 3.23223C7.29888 2.76338 6.66299 2.49999 5.99995 2.49999Z" fill="white"/>
</svg>
