<svg width="12" height="12" viewBox="0 0 12 12" fill="none" xmlns="http://www.w3.org/2000/svg">
<path d="M9 8.06002C8.62 8.06002 8.28 8.21002 8.02 8.44502L4.455 6.37002C4.48 6.25502 4.5 6.14002 4.5 6.02002C4.5 5.90002 4.48 5.78502 4.455 5.67002L7.98 3.61502C8.25 3.86502 8.605 4.02002 9 4.02002C9.83 4.02002 10.5 3.35002 10.5 2.52002C10.5 1.69002 9.83 1.02002 9 1.02002C8.17 1.02002 7.5 1.69002 7.5 2.52002C7.5 2.64002 7.52 2.75502 7.545 2.87002L4.02 4.92502C3.75 4.67502 3.395 4.52002 3 4.52002C2.17 4.52002 1.5 5.19002 1.5 6.02002C1.5 6.85002 2.17 7.52002 3 7.52002C3.395 7.52002 3.75 7.36502 4.02 7.11502L7.58 9.19502C7.555 9.30002 7.54 9.41002 7.54 9.52002C7.54 10.325 8.195 10.98 9 10.98C9.805 10.98 10.46 10.325 10.46 9.52002C10.46 8.71502 9.805 8.06002 9 8.06002Z" fill="white"/>
</svg>
