<svg width="12" height="12" viewBox="0 0 12 12" fill="none" xmlns="http://www.w3.org/2000/svg">
<g clip-path="url(#clip0_124_68)">
<path d="M7.03946 0.75C7.11885 0.750003 7.1962 0.775203 7.26035 0.821972C7.32451 0.868741 7.37217 0.934665 7.39646 1.01025L7.80896 2.292C7.98221 2.37675 8.14796 2.472 8.30621 2.57925L9.62321 2.29575C9.70086 2.27917 9.78177 2.28767 9.85428 2.32002C9.9268 2.35236 9.98717 2.40689 10.0267 2.47575L11.0662 4.275C11.1059 4.34382 11.1227 4.42346 11.1142 4.50245C11.1057 4.58144 11.0724 4.65569 11.019 4.7145L10.1152 5.712C10.1284 5.90327 10.1284 6.09523 10.1152 6.2865L11.019 7.2855C11.0724 7.34431 11.1057 7.41856 11.1142 7.49755C11.1227 7.57654 11.1059 7.65618 11.0662 7.725L10.0267 9.525C9.98706 9.59372 9.92664 9.64809 9.85414 9.6803C9.78163 9.71251 9.70078 9.7209 9.62321 9.70425L8.30621 9.42075C8.14871 9.52725 7.98221 9.62325 7.80971 9.708L7.39646 10.9897C7.37217 11.0653 7.32451 11.1313 7.26035 11.178C7.1962 11.2248 7.11885 11.25 7.03946 11.25H4.96046C4.88107 11.25 4.80372 11.2248 4.73957 11.178C4.67541 11.1313 4.62775 11.0653 4.60346 10.9897L4.19171 9.70875C4.01892 9.62426 3.85227 9.52777 3.69296 9.42L2.37671 9.70425C2.29906 9.72083 2.21815 9.71233 2.14564 9.67998C2.07312 9.64764 2.01275 9.59311 1.97321 9.52425L0.933709 7.725C0.894015 7.65618 0.877202 7.57654 0.885694 7.49755C0.894186 7.41856 0.927544 7.34431 0.980959 7.2855L1.88471 6.2865C1.87162 6.09572 1.87162 5.90428 1.88471 5.7135L0.980959 4.7145C0.927544 4.65569 0.894186 4.58144 0.885694 4.50245C0.877202 4.42346 0.894015 4.34382 0.933709 4.275L1.97321 2.475C2.01286 2.40628 2.07328 2.35191 2.14578 2.3197C2.21829 2.28749 2.29914 2.2791 2.37671 2.29575L3.69296 2.58C3.85196 2.47275 4.01846 2.376 4.19171 2.29125L4.60421 1.01025C4.62842 0.934908 4.67585 0.869159 4.73971 0.822412C4.80357 0.775666 4.88057 0.750319 4.95971 0.75H7.03871H7.03946ZM6.76496 1.5H5.23496L4.80896 2.82525L4.52171 2.9655C4.3805 3.0346 4.24418 3.11329 4.11371 3.201L3.84821 3.381L2.48621 3.087L1.72121 4.413L2.65496 5.4465L2.63246 5.7645C2.62168 5.92132 2.62168 6.07868 2.63246 6.2355L2.65496 6.5535L1.71971 7.587L2.48546 8.913L3.84746 8.61975L4.11296 8.799C4.24343 8.88671 4.37975 8.9654 4.52096 9.0345L4.80821 9.17475L5.23496 10.5H6.76646L7.19396 9.174L7.48046 9.0345C7.62152 8.96556 7.7576 8.88687 7.88771 8.799L8.15246 8.61975L9.51521 8.913L10.2802 7.587L9.34571 6.5535L9.36821 6.2355C9.37902 6.07844 9.37902 5.92081 9.36821 5.76375L9.34571 5.44575L10.281 4.413L9.51521 3.087L8.15246 3.3795L7.88771 3.201C7.75761 3.11311 7.62153 3.03442 7.48046 2.9655L7.19396 2.826L6.76571 1.5H6.76496ZM5.99996 3.75C6.5967 3.75 7.16899 3.98705 7.59095 4.40901C8.01291 4.83097 8.24996 5.40326 8.24996 6C8.24996 6.59674 8.01291 7.16903 7.59095 7.59099C7.16899 8.01295 6.5967 8.25 5.99996 8.25C5.40322 8.25 4.83093 8.01295 4.40897 7.59099C3.98701 7.16903 3.74996 6.59674 3.74996 6C3.74996 5.40326 3.98701 4.83097 4.40897 4.40901C4.83093 3.98705 5.40322 3.75 5.99996 3.75ZM5.99996 4.5C5.60213 4.5 5.2206 4.65804 4.9393 4.93934C4.65799 5.22064 4.49996 5.60218 4.49996 6C4.49996 6.39782 4.65799 6.77936 4.9393 7.06066C5.2206 7.34196 5.60213 7.5 5.99996 7.5C6.39778 7.5 6.77931 7.34196 7.06062 7.06066C7.34192 6.77936 7.49996 6.39782 7.49996 6C7.49996 5.60218 7.34192 5.22064 7.06062 4.93934C6.77931 4.65804 6.39778 4.5 5.99996 4.5Z" fill="white"/>
</g>
<defs>
<clipPath id="clip0_124_68">
<rect width="12" height="12" fill="white"/>
</clipPath>
</defs>
</svg>
