<svg width="12" height="12" viewBox="0 0 12 12" fill="none" xmlns="http://www.w3.org/2000/svg">
<path d="M5.41364 7.02727L8.50909 3.94546L7.73182 3.16818L5.41364 5.48636L4.25455 4.32727L3.49091 5.09091L5.41364 7.02727ZM0 10.8182V9.72727H12V10.8182H0ZM1.63636 9.18182C1.33636 9.18182 1.07945 9.07491 0.865636 8.86109C0.651818 8.64727 0.545091 8.39055 0.545455 8.09091V2.09091C0.545455 1.79091 0.652364 1.534 0.866182 1.32018C1.08 1.10636 1.33673 0.999637 1.63636 1H10.3636C10.6636 1 10.9205 1.10691 11.1344 1.32073C11.3482 1.53455 11.4549 1.79127 11.4545 2.09091V8.09091C11.4545 8.39091 11.3476 8.64782 11.1338 8.86164C10.92 9.07546 10.6633 9.18218 10.3636 9.18182H1.63636ZM1.63636 8.09091H10.3636V2.09091H1.63636V8.09091Z" fill="white"/>
</svg>
